<svg xmlns="http://www.w3.org/2000/svg" width="2000" height="1500" viewBox="0 0 2000 1500">
  <defs>
    <style>
      .cls-1 {
        fill: #363636;
      }

      .cls-1, .cls-2, .cls-3, .cls-4 {
        fill-rule: evenodd;
      }

      .cls-2 {
        fill: #34385b;
      }

      .cls-3, .cls-4 {
        fill: #fb2968;
      }

      .cls-4 {
        opacity: 0.73;
      }
    </style>
  </defs>
  <path class="cls-1" d="M-143,1126l-13,28H-130l-13-28"/>
  <path class="cls-1" d="M-49,423.987L353,307.22,49.226,17-49,423.987"/>
  <path class="cls-1" d="M-250,936h1v8h-1v-8Z"/>
  <path class="cls-2" d="M-225.029,292.008L-425.985,698.951H-24.072L-225.029,292.008M283.979,876v-1H1836v1H283.979Z"/>
  <path class="cls-2" d="M705,991h-1V62h1V991Z"/>
  <path class="cls-2" d="M1336,1056v-1h74v1h-74ZM738,559h-1V17h1V559Z"/>
  <path class="cls-3" d="M1678.51,778.726l71.25,96.94,49.02-99.947-120.27,3.007"/>
  <path class="cls-4" d="M1242.45,459.012l-2.46,131L1357,522.382l-114.55-63.37"/>
</svg>
